<svg width="16" height="16" viewBox="0 0 16 16" fill="none" xmlns="http://www.w3.org/2000/svg">
<g clip-path="url(#clip0_379_6144)">
<path d="M14.8 1.44198C14.4252 1.1286 13.986 0.901575 13.5136 0.777025C13.0413 0.652474 12.5472 0.633454 12.0667 0.721315L9.51866 1.18398C8.93039 1.29201 8.39552 1.59467 7.99999 2.04331C7.60343 1.59389 7.06703 1.29117 6.47733 1.18398L3.93333 0.721315C3.45276 0.633377 2.95875 0.652148 2.48624 0.776299C2.01374 0.900449 1.5743 1.12694 1.19904 1.43975C0.82377 1.75256 0.52185 2.14403 0.314647 2.58645C0.107444 3.02888 2.49122e-05 3.51144 -7.62939e-06 3.99998L-7.62939e-06 11.1953C3.06745e-05 11.9758 0.273977 12.7316 0.774081 13.3309C1.27419 13.9302 1.96873 14.3349 2.73666 14.4746L6.92733 15.2366C7.63663 15.3655 8.36336 15.3655 9.07266 15.2366L13.2667 14.4746C14.034 14.3342 14.7277 13.9292 15.2272 13.33C15.7266 12.7308 16.0001 11.9754 16 11.1953V3.99998C16.0003 3.51161 15.8929 3.02918 15.6855 2.58704C15.4781 2.14491 15.1757 1.75394 14.8 1.44198ZM7.33333 13.952C7.27733 13.944 7.22133 13.9346 7.16533 13.9246L2.97533 13.1633C2.5145 13.0795 2.09772 12.8366 1.79765 12.4769C1.49758 12.1173 1.33326 11.6637 1.33333 11.1953V3.99998C1.33333 3.46955 1.54404 2.96084 1.91911 2.58577C2.29418 2.2107 2.80289 1.99998 3.33333 1.99998C3.45405 2.00027 3.57452 2.0112 3.69333 2.03265L6.23999 2.49932C6.5464 2.55538 6.82351 2.71696 7.02322 2.95601C7.22294 3.19506 7.33265 3.49649 7.33333 3.80798V13.952ZM14.6667 11.1953C14.6667 11.6637 14.5024 12.1173 14.2023 12.4769C13.9023 12.8366 13.4855 13.0795 13.0247 13.1633L8.83466 13.9246C8.77866 13.9346 8.72266 13.944 8.66666 13.952V3.80798C8.66661 3.49572 8.77616 3.19335 8.97621 2.95359C9.17626 2.71382 9.45411 2.55188 9.76133 2.49598L12.3087 2.02931C12.5971 1.97683 12.8936 1.98842 13.1771 2.06326C13.4606 2.13809 13.7242 2.27435 13.9492 2.46239C14.1742 2.65042 14.3551 2.88562 14.4791 3.15133C14.6031 3.41704 14.6671 3.70677 14.6667 3.99998V11.1953Z" fill="current"/>
</g>
<defs>
<clipPath id="clip0_379_6144">
<rect width="16" height="16" fill="white"/>
</clipPath>
</defs>
</svg>
