<svg width="16" height="16" viewBox="0 0 16 16" fill="none" xmlns="http://www.w3.org/2000/svg">x
<path d="M15.3333 7.33301H0.666667C0.298477 7.33301 0 7.63149 0 7.99968C0 8.36787 0.298477 8.66635 0.666667 8.66635H15.3333C15.7015 8.66635 16 8.36787 16 7.99968C16 7.63149 15.7015 7.33301 15.3333 7.33301Z" fill="current"/>
<path d="M15.3333 2.66699H0.666667C0.298477 2.66699 0 2.96547 0 3.33366C0 3.70185 0.298477 4.00032 0.666667 4.00032H15.3333C15.7015 4.00032 16 3.70185 16 3.33366C16 2.96547 15.7015 2.66699 15.3333 2.66699Z" fill="current"/>
<path d="M15.3333 12H0.666667C0.298477 12 0 12.2985 0 12.6667C0 13.0349 0.298477 13.3333 0.666667 13.3333H15.3333C15.7015 13.3333 16 13.0349 16 12.6667C16 12.2985 15.7015 12 15.3333 12Z" fill="current"/>
</svg>
