<svg width="10" height="10" viewBox="0 0 10 10" fill="none" xmlns="http://www.w3.org/2000/svg">
<g clip-path="url(#clip0_831_5905)">
<path d="M7.91667 0.833333H7.5V0.416667C7.5 0.30616 7.4561 0.200179 7.37796 0.122039C7.29982 0.0438987 7.19384 0 7.08333 0C6.97283 0 6.86685 0.0438987 6.78871 0.122039C6.71056 0.200179 6.66667 0.30616 6.66667 0.416667V0.833333H3.33333V0.416667C3.33333 0.30616 3.28943 0.200179 3.21129 0.122039C3.13315 0.0438987 3.02717 0 2.91667 0C2.80616 0 2.70018 0.0438987 2.62204 0.122039C2.5439 0.200179 2.5 0.30616 2.5 0.416667V0.833333H2.08333C1.531 0.833995 1.00148 1.0537 0.610925 1.44426C0.220367 1.83482 0.000661607 2.36434 0 2.91667L0 7.91667C0.000661607 8.469 0.220367 8.99852 0.610925 9.38908C1.00148 9.77963 1.531 9.99934 2.08333 10H7.91667C8.469 9.99934 8.99852 9.77963 9.38908 9.38908C9.77963 8.99852 9.99934 8.469 10 7.91667V2.91667C9.99934 2.36434 9.77963 1.83482 9.38908 1.44426C8.99852 1.0537 8.469 0.833995 7.91667 0.833333V0.833333ZM0.833333 2.91667C0.833333 2.58515 0.965029 2.2672 1.19945 2.03278C1.43387 1.79836 1.75181 1.66667 2.08333 1.66667H7.91667C8.24819 1.66667 8.56613 1.79836 8.80055 2.03278C9.03497 2.2672 9.16667 2.58515 9.16667 2.91667V3.33333H0.833333V2.91667ZM7.91667 9.16667H2.08333C1.75181 9.16667 1.43387 9.03497 1.19945 8.80055C0.965029 8.56613 0.833333 8.24819 0.833333 7.91667V4.16667H9.16667V7.91667C9.16667 8.24819 9.03497 8.56613 8.80055 8.80055C8.56613 9.03497 8.24819 9.16667 7.91667 9.16667Z" fill="#868B94"/>
<path d="M5 6.875C5.34518 6.875 5.625 6.59518 5.625 6.25C5.625 5.90482 5.34518 5.625 5 5.625C4.65482 5.625 4.375 5.90482 4.375 6.25C4.375 6.59518 4.65482 6.875 5 6.875Z" fill="#868B94"/>
<path d="M2.9166 6.875C3.26178 6.875 3.5416 6.59518 3.5416 6.25C3.5416 5.90482 3.26178 5.625 2.9166 5.625C2.57143 5.625 2.2916 5.90482 2.2916 6.25C2.2916 6.59518 2.57143 6.875 2.9166 6.875Z" fill="#868B94"/>
<path d="M7.0834 6.875C7.42857 6.875 7.7084 6.59518 7.7084 6.25C7.7084 5.90482 7.42857 5.625 7.0834 5.625C6.73822 5.625 6.4584 5.90482 6.4584 6.25C6.4584 6.59518 6.73822 6.875 7.0834 6.875Z" fill="#868B94"/>
</g>
<defs>
<clipPath id="clip0_831_5905">
<rect width="10" height="10" fill="white"/>
</clipPath>
</defs>
</svg>
