<svg width="16" height="16" viewBox="0 0 16 16" fill="none" xmlns="http://www.w3.org/2000/svg">
<g clip-path="url(#clip0_379_6141)">
<path d="M15.4141 6.04594L10.3575 0.988608C9.73163 0.364601 8.88391 0.0141907 8.00014 0.0141907C7.11636 0.0141907 6.26864 0.364601 5.6428 0.988608L0.586138 6.04594C0.399755 6.23113 0.251984 6.45147 0.151393 6.6942C0.0508012 6.93692 -0.000610567 7.1972 0.000137753 7.45994V14.0046C0.000137753 14.535 0.210851 15.0437 0.585924 15.4188C0.960997 15.7939 1.4697 16.0046 2.00014 16.0046H14.0001C14.5306 16.0046 15.0393 15.7939 15.4144 15.4188C15.7894 15.0437 16.0001 14.535 16.0001 14.0046V7.45994C16.0009 7.1972 15.9495 6.93692 15.8489 6.6942C15.7483 6.45147 15.6005 6.23113 15.4141 6.04594ZM10.0001 14.6713H6.00014V12.0486C6.00014 11.5182 6.21085 11.0095 6.58592 10.6344C6.961 10.2593 7.46971 10.0486 8.00014 10.0486C8.53057 10.0486 9.03928 10.2593 9.41435 10.6344C9.78942 11.0095 10.0001 11.5182 10.0001 12.0486V14.6713ZM14.6668 14.0046C14.6668 14.1814 14.5966 14.351 14.4715 14.476C14.3465 14.601 14.1769 14.6713 14.0001 14.6713H11.3335V12.0486C11.3335 11.1646 10.9823 10.3167 10.3572 9.69159C9.73204 9.06646 8.88419 8.71527 8.00014 8.71527C7.11608 8.71527 6.26824 9.06646 5.64312 9.69159C5.01799 10.3167 4.6668 11.1646 4.6668 12.0486V14.6713H2.00014C1.82333 14.6713 1.65376 14.601 1.52873 14.476C1.40371 14.351 1.33347 14.1814 1.33347 14.0046V7.45994C1.33409 7.28326 1.40426 7.11393 1.5288 6.98861L6.58547 1.93327C6.96127 1.55923 7.46991 1.34924 8.00014 1.34924C8.53036 1.34924 9.03901 1.55923 9.4148 1.93327L14.4715 6.99061C14.5955 7.11544 14.6657 7.28395 14.6668 7.45994V14.0046Z" fill="current"/>
</g>
<defs>
<clipPath id="clip0_379_6141">
<rect width="16" height="16" fill="white"/>
</clipPath>
</defs>
</svg>
