<svg width="20" height="20" viewBox="0 0 20 20" fill="none" xmlns="http://www.w3.org/2000/svg">
<path d="M8.83326 10.5917C8.75515 10.5142 8.69316 10.422 8.65085 10.3205C8.60854 10.2189 8.58676 10.11 8.58676 10C8.58676 9.89 8.60854 9.78108 8.65085 9.67953C8.69316 9.57798 8.75515 9.48581 8.83326 9.40834L12.6583 5.59168C12.7364 5.51421 12.7984 5.42204 12.8407 5.32049C12.883 5.21894 12.9048 5.11002 12.9048 5.00001C12.9048 4.89 12.883 4.78108 12.8407 4.67953C12.7984 4.57798 12.7364 4.48581 12.6583 4.40834C12.5021 4.25313 12.2909 4.16602 12.0708 4.16602C11.8506 4.16602 11.6394 4.25313 11.4833 4.40834L7.65826 8.23334C7.19009 8.70209 6.92712 9.33751 6.92712 10C6.92712 10.6625 7.19009 11.2979 7.65826 11.7667L11.4833 15.5917C11.6385 15.7456 11.848 15.8324 12.0666 15.8333C12.1763 15.834 12.285 15.813 12.3865 15.7715C12.488 15.73 12.5804 15.6689 12.6583 15.5917C12.7364 15.5142 12.7984 15.422 12.8407 15.3205C12.883 15.2189 12.9048 15.11 12.9048 15C12.9048 14.89 12.883 14.7811 12.8407 14.6795C12.7984 14.578 12.7364 14.4858 12.6583 14.4083L8.83326 10.5917Z" fill="#393A40"/>
</svg>
