<svg width="16" height="16" viewBox="0 0 16 16" fill="none" xmlns="http://www.w3.org/2000/svg">
<g clip-path="url(#clip0_1054_6862)">
<path d="M8.00004 4C7.47263 4 6.95705 4.1564 6.51852 4.44941C6.07999 4.74243 5.7382 5.15891 5.53636 5.64618C5.33453 6.13345 5.28172 6.66962 5.38461 7.18691C5.48751 7.70419 5.74148 8.17934 6.11442 8.55228C6.48736 8.92522 6.96252 9.1792 7.4798 9.28209C7.99708 9.38499 8.53326 9.33218 9.02053 9.13035C9.5078 8.92851 9.92428 8.58672 10.2173 8.14819C10.5103 7.70966 10.6667 7.19408 10.6667 6.66667C10.6667 5.95942 10.3858 5.28115 9.88566 4.78105C9.38556 4.28095 8.70729 4 8.00004 4ZM8.00004 8C7.73633 8 7.47855 7.9218 7.25928 7.77529C7.04002 7.62878 6.86912 7.42055 6.7682 7.17691C6.66729 6.93328 6.64088 6.66519 6.69233 6.40655C6.74378 6.1479 6.87076 5.91033 7.05723 5.72386C7.2437 5.53739 7.48128 5.4104 7.73992 5.35895C7.99856 5.30751 8.26665 5.33391 8.51029 5.43483C8.75392 5.53574 8.96216 5.70664 9.10867 5.92591C9.25518 6.14517 9.33338 6.40296 9.33338 6.66667C9.33338 7.02029 9.1929 7.35943 8.94285 7.60948C8.6928 7.85952 8.35366 8 8.00004 8Z" fill="#868B94"/>
<path d="M7.99996 16.0002C7.43859 16.003 6.8847 15.8714 6.38467 15.6162C5.88464 15.361 5.45303 14.9898 5.12596 14.5335C2.5853 11.0288 1.29663 8.39417 1.29663 6.70217C1.29663 4.92434 2.00287 3.21932 3.25999 1.9622C4.51711 0.705083 6.22213 -0.00115967 7.99996 -0.00115967C9.7778 -0.00115967 11.4828 0.705083 12.7399 1.9622C13.9971 3.21932 14.7033 4.92434 14.7033 6.70217C14.7033 8.39417 13.4146 11.0288 10.874 14.5335C10.5469 14.9898 10.1153 15.361 9.61525 15.6162C9.11522 15.8714 8.56133 16.003 7.99996 16.0002V16.0002ZM7.99996 1.45417C6.60824 1.45576 5.27398 2.00932 4.28988 2.99342C3.30578 3.97752 2.75222 5.31179 2.75063 6.70351C2.75063 8.04351 4.01263 10.5215 6.3033 13.6808C6.49776 13.9487 6.75288 14.1667 7.04777 14.317C7.34267 14.4673 7.66897 14.5457 7.99996 14.5457C8.33096 14.5457 8.65726 14.4673 8.95215 14.317C9.24705 14.1667 9.50217 13.9487 9.69663 13.6808C11.9873 10.5215 13.2493 8.04351 13.2493 6.70351C13.2477 5.31179 12.6941 3.97752 11.71 2.99342C10.726 2.00932 9.39169 1.45576 7.99996 1.45417V1.45417Z" fill="#868B94"/>
</g>
<defs>
<clipPath id="clip0_1054_6862">
<rect width="16" height="16" fill="white"/>
</clipPath>
</defs>
</svg>
