<svg width="16" height="16" viewBox="0 0 16 16" fill="none" xmlns="http://www.w3.org/2000/svg">
<g clip-path="url(#clip0_379_6147)">
<path d="M7.99924 8C8.52666 8 9.04223 7.8436 9.48076 7.55059C9.91929 7.25757 10.2611 6.84109 10.4629 6.35382C10.6648 5.86655 10.7176 5.33038 10.6147 4.81309C10.5118 4.29581 10.2578 3.82066 9.88486 3.44772C9.51192 3.07478 9.03676 2.8208 8.51948 2.71791C8.0022 2.61501 7.46602 2.66782 6.97875 2.86965C6.49148 3.07149 6.07501 3.41328 5.78199 3.85181C5.48897 4.29034 5.33257 4.80592 5.33257 5.33333C5.33257 6.04058 5.61353 6.71885 6.11362 7.21895C6.61372 7.71905 7.292 8 7.99924 8ZM7.99924 4C8.26295 4 8.52074 4.0782 8.74 4.22471C8.95927 4.37122 9.13016 4.57945 9.23108 4.82309C9.332 5.06672 9.3584 5.33481 9.30695 5.59345C9.25551 5.8521 9.12852 6.08967 8.94205 6.27614C8.75558 6.46261 8.518 6.5896 8.25936 6.64105C8.00072 6.69249 7.73263 6.66609 7.489 6.56517C7.24536 6.46426 7.03712 6.29336 6.89061 6.07409C6.74411 5.85483 6.66591 5.59704 6.66591 5.33333C6.66591 4.97971 6.80638 4.64057 7.05643 4.39052C7.30648 4.14048 7.64562 4 7.99924 4ZM13.7726 6.10467L13.2932 5.94533C13.3795 5.19862 13.3069 4.4421 13.0803 3.72539C12.8537 3.00868 12.4781 2.34798 11.9782 1.78659C11.4784 1.22521 10.8655 0.77584 10.1797 0.467942C9.494 0.160045 8.75092 0.000578321 7.99924 0C7.23775 0.00029398 6.48516 0.163796 5.79218 0.47949C5.09921 0.795184 4.48195 1.25574 3.98199 1.83012C3.48203 2.4045 3.11098 3.07936 2.89385 3.80925C2.67671 4.53913 2.61854 5.30707 2.72324 6.06133C2.08526 6.18029 1.49532 6.48128 1.02457 6.928C0.698689 7.23783 0.43962 7.61104 0.263292 8.02469C0.0869647 8.43834 -0.00289419 8.88368 -0.000760134 9.33333V12.05C0.00064093 12.7709 0.235101 13.472 0.667634 14.0487C1.10017 14.6254 1.70758 15.0468 2.39924 15.25L4.31257 15.85C4.63395 15.95 4.96866 16.0006 5.30524 16C5.61057 15.9996 5.91444 15.9579 6.20857 15.876L10.0619 14.736C10.4052 14.6423 10.7673 14.6423 11.1106 14.736L12.7019 15.2693C13.0941 15.3648 13.5029 15.37 13.8974 15.2845C14.2918 15.199 14.6618 15.0251 14.9793 14.7758C15.2968 14.5266 15.5535 14.2085 15.7302 13.8455C15.9069 13.4826 15.9989 13.0843 15.9992 12.6807V9.248C15.9977 8.55827 15.7829 7.88589 15.3843 7.32303C14.9857 6.76017 14.4227 6.33437 13.7726 6.104V6.10467ZM5.17124 2.508C5.54208 2.13566 5.98279 1.84022 6.4681 1.63862C6.9534 1.43703 7.47373 1.33325 7.99924 1.33325C8.52475 1.33325 9.04508 1.43703 9.53039 1.63862C10.0157 1.84022 10.4564 2.13566 10.8272 2.508C11.5753 3.26076 11.9959 4.27854 11.9972 5.33982C11.9986 6.4011 11.5807 7.41997 10.8346 8.17467L8.46591 10.478C8.34228 10.5992 8.17605 10.6671 8.00291 10.6671C7.82977 10.6671 7.66354 10.5992 7.53991 10.478L5.17124 8.18467C4.42155 7.43026 4.00078 6.40989 4.00078 5.34633C4.00078 4.28277 4.42155 3.26241 5.17124 2.508V2.508ZM14.6659 12.6807C14.6663 12.8826 14.6207 13.0819 14.5324 13.2635C14.4441 13.4452 14.3156 13.6042 14.1566 13.7287C14.0063 13.8495 13.8313 13.9357 13.6439 13.9812C13.4566 14.0267 13.2615 14.0304 13.0726 13.992L11.5092 13.4667C10.9179 13.2968 10.2912 13.2931 9.69791 13.456L5.84191 14.5947C5.47142 14.6969 5.07934 14.6902 4.71257 14.5753L2.78324 13.9753C2.36567 13.8546 1.99855 13.6016 1.73697 13.2545C1.4754 12.9073 1.3335 12.4847 1.33257 12.05V9.33333C1.33108 9.06386 1.38471 8.79692 1.49019 8.54894C1.59566 8.30095 1.75075 8.07717 1.94591 7.89133C2.25141 7.60018 2.64059 7.41223 3.05857 7.354C3.32731 8.02012 3.72749 8.62527 4.23524 9.13333L6.61324 11.4353C6.98491 11.7993 7.48439 12.0031 8.00457 12.0031C8.52476 12.0031 9.02423 11.7993 9.39591 11.4353L11.7712 9.12667C12.3031 8.59269 12.7151 7.95159 12.9799 7.246L13.3379 7.36467C13.7262 7.50379 14.062 7.7593 14.2997 8.09636C14.5374 8.43341 14.6652 8.83558 14.6659 9.248V12.6807Z" fill="current"/>
</g>
<defs>
<clipPath id="clip0_379_6147">
<rect width="16" height="16" fill="white"/>
</clipPath>
</defs>
</svg>
