<svg width="44" height="44" viewBox="0 0 44 44" fill="none" xmlns="http://www.w3.org/2000/svg">
<g clip-path="url(#clip0_595_3342)">
<path d="M42.1138 15.8824C42.6249 15.6732 42.8748 15.0868 42.6447 14.585C41.3447 11.7495 39.4181 9.24335 37.0004 7.25179C34.3248 5.04774 31.1302 3.54196 27.6998 2.86783C24.2694 2.1937 20.709 2.37202 17.3339 3.38701C13.9589 4.40199 10.8734 6.2223 8.35069 8.6867C5.82803 11.1511 3.9461 14.1835 2.87158 17.5154C1.79707 20.8472 1.56314 24.3756 2.19052 27.788C2.81791 31.2004 4.28724 34.3916 6.46836 37.0787C8.44493 39.5139 10.9508 41.467 13.7996 42.7997C14.2915 43.0299 14.8693 42.7916 15.0871 42.2899L16.1733 39.7881C16.397 39.273 16.1559 38.6786 15.6546 38.4345C13.533 37.4014 11.6648 35.922 10.1803 34.0931C8.48342 32.0025 7.34029 29.5198 6.85219 26.8649C6.36408 24.2101 6.54608 21.465 7.38205 18.8728C8.21802 16.2807 9.68216 13.9214 11.6448 12.0041C13.6074 10.0868 16.0079 8.67064 18.6337 7.88099C21.2595 7.09133 24.0295 6.9526 26.6984 7.47707C29.3672 8.00155 31.8525 9.17304 33.9342 10.8878C35.7578 12.39 37.2223 14.2684 38.2316 16.3919C38.4686 16.8905 39.0468 17.138 39.5579 16.9288L42.1138 15.8824Z" fill="#FA624D"/>
<path d="M23.8604 9.96289C30.2201 9.96305 35.6127 14.0893 37.5 19.8047C33.7264 20.6021 38.2546 28.94 26.0137 32.5312C21.0883 33.9763 19.4526 35.9413 19.8281 38.0469C13.8604 36.308 9.50005 30.8086 9.5 24.292C9.5 16.3785 15.9297 9.96289 23.8604 9.96289Z" fill="#FA624D"/>
<path d="M19 19.463C20.3807 19.463 21.5 19.7988 21.5 20.213C21.5 20.6272 20.3807 20.963 19 20.963C17.6193 20.963 16.5 21.3772 16.5 20.963C16.5 20.5488 17.6193 19.463 19 19.463Z" fill="white"/>
<path d="M28 18.9643C29.1046 18.9643 30.5 18.9117 30.5 19.464C30.5 20.0163 29.1046 20.4641 28 20.4641C26.8954 20.4641 26 20.5165 26 19.9643C26 19.412 26.8954 18.9643 28 18.9643Z" fill="white"/>
<path d="M14.7314 6.51953C13.8348 9.88846 6.1544 10.1751 3.05634 9.3506C-0.0417188 8.5261 7.86285 7.7053 8.75945 4.33637C9.65604 0.967439 17.6987 1.37104 20.7968 2.19555C23.8949 3.02005 15.6279 3.1506 14.7314 6.51953Z" fill="#FDFBFA"/>
<path d="M14.7314 6.51953C13.8348 9.88846 6.1544 10.1751 3.05634 9.3506C-0.0417188 8.5261 7.86285 7.7053 8.75945 4.33637C9.65604 0.967439 17.6987 1.37104 20.7968 2.19555C23.8949 3.02005 15.6279 3.1506 14.7314 6.51953Z" fill="#FDFBFA"/>
<path d="M14.7314 6.51953C13.8348 9.88846 6.1544 10.1751 3.05634 9.3506C-0.0417188 8.5261 7.86285 7.7053 8.75945 4.33637C9.65604 0.967439 17.6987 1.37104 20.7968 2.19555C23.8949 3.02005 15.6279 3.1506 14.7314 6.51953Z" fill="#FDFBFA"/>
<path d="M14.7314 6.51953C13.8348 9.88846 6.1544 10.1751 3.05634 9.3506C-0.0417188 8.5261 7.86285 7.7053 8.75945 4.33637C9.65604 0.967439 17.6987 1.37104 20.7968 2.19555C23.8949 3.02005 15.6279 3.1506 14.7314 6.51953Z" fill="#FDFBFA"/>
</g>
<defs>
<clipPath id="clip0_595_3342">
<rect width="44" height="44" fill="white"/>
</clipPath>
</defs>
</svg>
