<svg width="16" height="16" viewBox="0 0 16 16" fill="none" xmlns="http://www.w3.org/2000/svg">
<g clip-path="url(#clip0_1054_6864)">
<path d="M8 0C6.41775 0 4.87103 0.469192 3.55544 1.34824C2.23985 2.22729 1.21447 3.47672 0.608967 4.93853C0.00346629 6.40034 -0.15496 8.00888 0.153721 9.56072C0.462403 11.1126 1.22433 12.538 2.34315 13.6569C3.46197 14.7757 4.88743 15.5376 6.43928 15.8463C7.99113 16.155 9.59966 15.9965 11.0615 15.391C12.5233 14.7855 13.7727 13.7602 14.6518 12.4446C15.5308 11.129 16 9.58225 16 8C15.9977 5.87897 15.1541 3.84547 13.6543 2.34568C12.1545 0.845886 10.121 0.00229405 8 0V0ZM8.66667 14.6327V13.3333C8.66667 13.1565 8.59643 12.987 8.47141 12.8619C8.34638 12.7369 8.17682 12.6667 8 12.6667C7.82319 12.6667 7.65362 12.7369 7.5286 12.8619C7.40358 12.987 7.33334 13.1565 7.33334 13.3333V14.6327C5.80412 14.477 4.37546 13.7984 3.28854 12.7115C2.20163 11.6245 1.52304 10.1959 1.36734 8.66667H2.66667C2.84348 8.66667 3.01305 8.59643 3.13807 8.47141C3.2631 8.34638 3.33334 8.17681 3.33334 8C3.33334 7.82319 3.2631 7.65362 3.13807 7.5286C3.01305 7.40357 2.84348 7.33333 2.66667 7.33333H1.36734C1.52304 5.80411 2.20163 4.37545 3.28854 3.28854C4.37546 2.20163 5.80412 1.52304 7.33334 1.36733V2.66667C7.33334 2.84348 7.40358 3.01305 7.5286 3.13807C7.65362 3.2631 7.82319 3.33333 8 3.33333C8.17682 3.33333 8.34638 3.2631 8.47141 3.13807C8.59643 3.01305 8.66667 2.84348 8.66667 2.66667V1.36733C10.1959 1.52304 11.6245 2.20163 12.7115 3.28854C13.7984 4.37545 14.477 5.80411 14.6327 7.33333H13.3333C13.1565 7.33333 12.987 7.40357 12.8619 7.5286C12.7369 7.65362 12.6667 7.82319 12.6667 8C12.6667 8.17681 12.7369 8.34638 12.8619 8.47141C12.987 8.59643 13.1565 8.66667 13.3333 8.66667H14.6327C14.477 10.1959 13.7984 11.6245 12.7115 12.7115C11.6245 13.7984 10.1959 14.477 8.66667 14.6327V14.6327ZM10.6667 8C10.6667 8.17681 10.5964 8.34638 10.4714 8.47141C10.3464 8.59643 10.1768 8.66667 10 8.66667H8.66667V10C8.66667 10.1768 8.59643 10.3464 8.47141 10.4714C8.34638 10.5964 8.17682 10.6667 8 10.6667C7.82319 10.6667 7.65362 10.5964 7.5286 10.4714C7.40358 10.3464 7.33334 10.1768 7.33334 10V8.66667H6C5.82319 8.66667 5.65362 8.59643 5.5286 8.47141C5.40358 8.34638 5.33334 8.17681 5.33334 8C5.33334 7.82319 5.40358 7.65362 5.5286 7.5286C5.65362 7.40357 5.82319 7.33333 6 7.33333H7.33334V6C7.33334 5.82319 7.40358 5.65362 7.5286 5.5286C7.65362 5.40357 7.82319 5.33333 8 5.33333C8.17682 5.33333 8.34638 5.40357 8.47141 5.5286C8.59643 5.65362 8.66667 5.82319 8.66667 6V7.33333H10C10.1768 7.33333 10.3464 7.40357 10.4714 7.5286C10.5964 7.65362 10.6667 7.82319 10.6667 8Z" fill="#868B94"/>
</g>
<defs>
<clipPath id="clip0_1054_6864">
<rect width="16" height="16" fill="white"/>
</clipPath>
</defs>
</svg>
