<svg width="360" height="48" viewBox="0 0 360 48" fill="none" xmlns="http://www.w3.org/2000/svg">
<rect width="360" height="48" rx="8" fill="#FEE500"/>
<g clip-path="url(#clip0_935_11339)">
<path fill-rule="evenodd" clip-rule="evenodd" d="M135 15.6001C130.029 15.6001 126 18.7131 126 22.5524C126 24.9401 127.558 27.0451 129.932 28.2971L128.933 31.9446C128.845 32.2669 129.213 32.5238 129.496 32.337L133.873 29.4483C134.243 29.4839 134.618 29.5047 135 29.5047C139.97 29.5047 144 26.3919 144 22.5524C144 18.7131 139.97 15.6001 135 15.6001Z" fill="black"/>
</g>
<path d="M159.215 19.715C159.205 24.075 157.23 27.29 153.29 29.36L152.3 28.25C154.38 27.3 155.87 25.915 156.77 24.095L152.855 24.515L152.615 23.18L157.28 22.835C157.46 22.185 157.57 21.56 157.61 20.96H153.29V19.715H159.215ZM162.83 18.32V23.54H164.9V24.815H162.83V31.685H161.285V18.32H162.83ZM172.194 19.715C172.184 24.075 170.209 27.29 166.269 29.36L165.279 28.25C167.359 27.3 168.849 25.915 169.749 24.095L165.834 24.515L165.594 23.18L170.259 22.835C170.439 22.185 170.549 21.56 170.589 20.96H166.269V19.715H172.194ZM175.809 18.32V23.54H177.879V24.815H175.809V31.685H174.264V18.32H175.809ZM190.482 29.975H178.407V28.745H183.657V26.465C182.417 26.345 181.432 25.96 180.702 25.31C179.972 24.65 179.607 23.82 179.607 22.82C179.607 21.72 180.047 20.835 180.927 20.165C181.817 19.485 182.987 19.145 184.437 19.145C185.907 19.145 187.082 19.485 187.962 20.165C188.852 20.835 189.297 21.72 189.297 22.82C189.297 23.82 188.927 24.65 188.187 25.31C187.447 25.97 186.447 26.36 185.187 26.48V28.745H190.482V29.975ZM187.752 22.835C187.752 22.115 187.447 21.53 186.837 21.08C186.237 20.63 185.437 20.405 184.437 20.405C183.457 20.405 182.662 20.63 182.052 21.08C181.452 21.53 181.152 22.115 181.152 22.835C181.152 23.545 181.452 24.12 182.052 24.56C182.662 24.99 183.457 25.205 184.437 25.205C185.427 25.205 186.227 24.99 186.837 24.56C187.447 24.12 187.752 23.545 187.752 22.835ZM206.231 26.525H202.106V28.76H207.401V29.99H195.326V28.76H200.576V26.525H196.871V22.205H204.311V20.48H196.826V19.25H205.841V23.45H198.416V25.28H206.231V26.525ZM220.379 29.735H208.304V28.49H220.379V29.735ZM218.804 19.76C218.804 23.06 218.609 25.66 218.219 27.56L216.704 27.365C216.864 26.715 216.994 25.77 217.094 24.53C217.204 23.28 217.259 22.095 217.259 20.975H209.699V19.76H218.804ZM232.278 28.01H230.748V18.32H232.278V28.01ZM232.593 31.295H223.443V27.095H224.973V30.065H232.593V31.295ZM227.568 20.225C228.208 20.835 228.528 21.62 228.528 22.58C228.528 23.54 228.208 24.325 227.568 24.935C226.938 25.545 226.118 25.85 225.108 25.85C224.088 25.85 223.258 25.545 222.618 24.935C221.978 24.325 221.658 23.545 221.658 22.595C221.658 21.635 221.978 20.85 222.618 20.24C223.258 19.62 224.088 19.31 225.108 19.31C226.118 19.31 226.938 19.615 227.568 20.225ZM226.998 22.58C226.998 21.99 226.828 21.51 226.488 21.14C226.148 20.77 225.688 20.585 225.108 20.585C224.548 20.585 224.088 20.775 223.728 21.155C223.378 21.525 223.203 22 223.203 22.58C223.203 23.14 223.378 23.61 223.728 23.99C224.088 24.36 224.548 24.545 225.108 24.545C225.678 24.545 226.133 24.36 226.473 23.99C226.823 23.61 226.998 23.14 226.998 22.58Z" fill="black" fill-opacity="0.85"/>
<defs>
<clipPath id="clip0_935_11339">
<rect width="17.9999" height="18" fill="white" transform="translate(126 15)"/>
</clipPath>
</defs>
</svg>
